<?xml version="1.0" encoding="UTF-8"?><svg id="Warstwa_2" xmlns="http://www.w3.org/2000/svg" viewBox="0 0 347.02 481.67"><defs><style>.cls-1,.cls-2{stroke-width:3px;}.cls-1,.cls-2,.cls-3,.cls-4{stroke:#fff;}.cls-1,.cls-3{stroke-miterlimit:10;}.cls-1,.cls-4{fill:none;}.cls-5{fill:#fff;}.cls-6,.cls-2,.cls-3{fill:#72b72f;}.cls-3{stroke-width:8px;}.cls-4{stroke-width:5px;}</style></defs><circle class="cls-1" cx="172.83" cy="308.61" r="169.13"/><circle class="cls-6" cx="172.83" cy="308.61" r="169.13"/><circle class="cls-3" cx="172.83" cy="308.61" r="148.37"/><path class="cls-5" d="m186.72,346.23v19.41h-75.45v-19.41h24.22v-75.29l-26.7,10.09v-21.42l39.9-14.9h13.97v101.53h24.06Z"/><path class="cls-5" d="m287.63,365.64h-28.72l-6.99-28.41h-37.1l-6.83,28.41h-26.55l30.89-121.09h44.24l31.05,121.09Zm-50.3-88.49c-1.4-5.43-2.64-11.02-3.42-16.61h-.78c-.93,5.59-2.17,11.18-3.57,16.61l-9.47,38.34h26.55l-9.31-38.34Z"/><path class="cls-5" d="m76,343.23c1.06-.11,1.94-.14,3-.14,7.91,0,12.46,3.85,12.46,10.95,0,7.84-4.8,11.9-14.16,11.9-8.72,0-14.12-4.45-14.12-11.58,0-5.75,3.11-9.5,8.72-10.49l1.48,6.57c-3.85.32-5.61,1.59-5.61,4.03,0,3.07,3.28,4.77,9.29,4.77,6.67,0,9.99-1.84,9.99-5.47,0-2.79-2.15-4.17-6.64-4.2v5.05h-4.41v-11.37Z"/><path class="cls-5" d="m91.08,325.71l-10.06,4.13v2.65h10.06v6.36h-27.54v-9.29c0-5.68,2.58-9.71,8.09-9.71,3.92,0,6.21,1.7,7.38,4.41l12.08-5.93v7.38Zm-14.76,6.78v-2.26c0-2.51-1.09-4.03-4.02-4.03s-4.17,1.52-4.17,4.03v2.26h8.19Z"/><path class="cls-5" d="m91.08,293.3v6.53l-6.46,1.59v8.44l6.46,1.55v6.04l-27.54-7.03v-10.06l27.54-7.06Zm-20.13,11.44c-1.24.32-2.51.6-3.78.78v.18c1.27.21,2.54.49,3.78.81l8.72,2.15v-6.04l-8.72,2.12Z"/><path class="cls-5" d="m63.54,280.91c0-7.63,4.2-12.39,13.45-12.39,9.82,0,14.09,5.23,14.09,12.75v8.86h-27.54v-9.22Zm22.95,0c0-3.5-2.47-5.9-9.18-5.9s-9.18,2.4-9.18,6.57v2.19h18.36v-2.86Z"/><path class="cls-5" d="m86.31,247.4h4.77v16.88h-27.54v-16.56h4.77v10.2h6.53v-9.18h4.59v9.18h6.89v-10.52Z"/><path class="cls-4" d="m84.89,66.43h14.65v6.12h-22.49v-28.01h21.97v6.12h-14.13v15.77Zm-.56-11.05h13.01v5.92h-13.01v-5.92Z"/><path class="cls-4" d="m112.14,72.55l-11.97-28.01h8.56l10.08,24.25h-5.04l10.32-24.25h7.84l-12.01,28.01h-7.8Z"/><path class="cls-4" d="m141.51,72.55h-7.92v-28.01h21.97v6.12h-14.05v21.89Zm-.56-15.73h12.93v6.12h-12.93v-6.12Z"/><path class="cls-4" d="m169.33,72.55v-4.96l10.48-9.8c.75-.69,1.3-1.31,1.66-1.84.36-.53.6-1.02.72-1.46.12-.44.18-.85.18-1.22,0-.91-.3-1.61-.9-2.12-.6-.51-1.5-.76-2.7-.76-1.01,0-1.96.23-2.84.68s-1.6,1.13-2.16,2.04l-5.88-3.28c1.04-1.76,2.55-3.17,4.52-4.24,1.97-1.07,4.33-1.6,7.08-1.6,2.16,0,4.05.35,5.68,1.04,1.63.69,2.9,1.68,3.82,2.96s1.38,2.79,1.38,4.52c0,.91-.12,1.81-.36,2.7-.24.89-.7,1.84-1.38,2.84-.68,1-1.69,2.11-3.02,3.34l-8.32,7.68-1.32-2.8h15.17v6.28h-21.81Z"/><path class="cls-4" d="m205.82,73.11c-2.4,0-4.53-.57-6.38-1.72-1.85-1.15-3.32-2.8-4.38-4.96-1.07-2.16-1.6-4.79-1.6-7.88s.53-5.72,1.6-7.88c1.07-2.16,2.53-3.81,4.38-4.96,1.85-1.15,3.98-1.72,6.38-1.72s4.49.57,6.34,1.72c1.85,1.15,3.31,2.8,4.38,4.96s1.6,4.79,1.6,7.88-.53,5.72-1.6,7.88-2.53,3.82-4.38,4.96c-1.85,1.15-3.97,1.72-6.34,1.72Zm0-6.48c.85,0,1.61-.27,2.26-.8.65-.53,1.17-1.39,1.54-2.58.37-1.19.56-2.75.56-4.7s-.19-3.55-.56-4.72c-.37-1.17-.89-2.03-1.54-2.56-.65-.53-1.41-.8-2.26-.8s-1.61.27-2.26.8c-.65.53-1.17,1.39-1.56,2.56-.39,1.17-.58,2.75-.58,4.72s.19,3.52.58,4.7c.39,1.19.91,2.05,1.56,2.58.65.53,1.41.8,2.26.8Z"/><path class="cls-4" d="m224.67,72.55v-25.17l3.4,3.28h-8.6v-6.12h13.13v28.01h-7.92Z"/><path class="cls-4" d="m248.8,73.11c-2.43,0-4.55-.36-6.36-1.08-1.81-.72-3.24-1.74-4.26-3.06-1.03-1.32-1.54-2.87-1.54-4.66s.51-3.26,1.54-4.5,2.46-2.19,4.28-2.84c1.83-.65,3.94-.98,6.34-.98s4.52.33,6.34.98c1.83.65,3.25,1.6,4.28,2.84,1.03,1.24,1.54,2.74,1.54,4.5s-.51,3.34-1.52,4.66c-1.01,1.32-2.43,2.34-4.26,3.06-1.83.72-3.96,1.08-6.38,1.08Zm0-13.21c-2.19,0-4.12-.31-5.78-.92-1.67-.61-2.98-1.5-3.94-2.66-.96-1.16-1.44-2.55-1.44-4.18s.47-3.12,1.42-4.32c.95-1.2,2.26-2.14,3.94-2.82,1.68-.68,3.62-1.02,5.8-1.02s4.16.34,5.82,1.02c1.67.68,2.97,1.62,3.92,2.82.95,1.2,1.42,2.64,1.42,4.32s-.47,3.02-1.42,4.18c-.95,1.16-2.26,2.05-3.94,2.66-1.68.61-3.62.92-5.8.92Zm0,7.64c1.28,0,2.3-.31,3.06-.92.76-.61,1.14-1.47,1.14-2.56s-.38-1.91-1.14-2.54c-.76-.63-1.78-.94-3.06-.94s-2.3.31-3.06.94c-.76.63-1.14,1.47-1.14,2.54s.38,1.95,1.14,2.56c.76.61,1.78.92,3.06.92Zm0-12.13c1.01,0,1.83-.26,2.44-.78.61-.52.92-1.23.92-2.14,0-.96-.31-1.69-.94-2.2-.63-.51-1.43-.76-2.42-.76s-1.79.25-2.4.76c-.61.51-.92,1.24-.92,2.2,0,.91.31,1.62.92,2.14.61.52,1.41.78,2.4.78Z"/><path class="cls-4" d="m272.55,45.36l-3.03,1.66v-.7l3.03,1.63-1.35,2.24-2.8-1.68.35-.21.07,3.1h-2.66l.07-3.1.35.21-2.8,1.68-1.33-2.24,3.03-1.63v.7l-3.03-1.66,1.33-2.24,2.8,1.7-.35.21-.07-3.13h2.66l-.07,3.13-.35-.21,2.8-1.7,1.35,2.24Z"/><path class="cls-2" d="m84.89,66.43h14.65v6.12h-22.49v-28.01h21.97v6.12h-14.13v15.77Zm-.56-11.05h13.01v5.92h-13.01v-5.92Z"/><path class="cls-2" d="m112.14,72.55l-11.97-28.01h8.56l10.08,24.25h-5.04l10.32-24.25h7.84l-12.01,28.01h-7.8Z"/><path class="cls-2" d="m141.51,72.55h-7.92v-28.01h21.97v6.12h-14.05v21.89Zm-.56-15.73h12.93v6.12h-12.93v-6.12Z"/><path class="cls-2" d="m169.33,72.55v-4.96l10.48-9.8c.75-.69,1.3-1.31,1.66-1.84.36-.53.6-1.02.72-1.46.12-.44.18-.85.18-1.22,0-.91-.3-1.61-.9-2.12-.6-.51-1.5-.76-2.7-.76-1.01,0-1.96.23-2.84.68s-1.6,1.13-2.16,2.04l-5.88-3.28c1.04-1.76,2.55-3.17,4.52-4.24,1.97-1.07,4.33-1.6,7.08-1.6,2.16,0,4.05.35,5.68,1.04,1.63.69,2.9,1.68,3.82,2.96s1.38,2.79,1.38,4.52c0,.91-.12,1.81-.36,2.7-.24.89-.7,1.84-1.38,2.84-.68,1-1.69,2.11-3.02,3.34l-8.32,7.68-1.32-2.8h15.17v6.28h-21.81Z"/><path class="cls-2" d="m205.82,73.11c-2.4,0-4.53-.57-6.38-1.72-1.85-1.15-3.32-2.8-4.38-4.96-1.07-2.16-1.6-4.79-1.6-7.88s.53-5.72,1.6-7.88c1.07-2.16,2.53-3.81,4.38-4.96,1.85-1.15,3.98-1.72,6.38-1.72s4.49.57,6.34,1.72c1.85,1.15,3.31,2.8,4.38,4.96s1.6,4.79,1.6,7.88-.53,5.72-1.6,7.88-2.53,3.82-4.38,4.96c-1.85,1.15-3.97,1.72-6.34,1.72Zm0-6.48c.85,0,1.61-.27,2.26-.8.65-.53,1.17-1.39,1.54-2.58.37-1.19.56-2.75.56-4.7s-.19-3.55-.56-4.72c-.37-1.17-.89-2.03-1.54-2.56-.65-.53-1.41-.8-2.26-.8s-1.61.27-2.26.8c-.65.53-1.17,1.39-1.56,2.56-.39,1.17-.58,2.75-.58,4.72s.19,3.52.58,4.7c.39,1.19.91,2.05,1.56,2.58.65.53,1.41.8,2.26.8Z"/><path class="cls-2" d="m224.67,72.55v-25.17l3.4,3.28h-8.6v-6.12h13.13v28.01h-7.92Z"/><path class="cls-2" d="m248.8,73.11c-2.43,0-4.55-.36-6.36-1.08-1.81-.72-3.24-1.74-4.26-3.06-1.03-1.32-1.54-2.87-1.54-4.66s.51-3.26,1.54-4.5,2.46-2.19,4.28-2.84c1.83-.65,3.94-.98,6.34-.98s4.52.33,6.34.98c1.83.65,3.25,1.6,4.28,2.84,1.03,1.24,1.54,2.74,1.54,4.5s-.51,3.34-1.52,4.66c-1.01,1.32-2.43,2.34-4.26,3.06-1.83.72-3.96,1.08-6.38,1.08Zm0-13.21c-2.19,0-4.12-.31-5.78-.92-1.67-.61-2.98-1.5-3.94-2.66-.96-1.16-1.44-2.55-1.44-4.18s.47-3.12,1.42-4.32c.95-1.2,2.26-2.14,3.94-2.82,1.68-.68,3.62-1.02,5.8-1.02s4.16.34,5.82,1.02c1.67.68,2.97,1.62,3.92,2.82.95,1.2,1.42,2.64,1.42,4.32s-.47,3.02-1.42,4.18c-.95,1.16-2.26,2.05-3.94,2.66-1.68.61-3.62.92-5.8.92Zm0,7.64c1.28,0,2.3-.31,3.06-.92.76-.61,1.14-1.47,1.14-2.56s-.38-1.91-1.14-2.54c-.76-.63-1.78-.94-3.06-.94s-2.3.31-3.06.94c-.76.63-1.14,1.47-1.14,2.54s.38,1.95,1.14,2.56c.76.61,1.78.92,3.06.92Zm0-12.13c1.01,0,1.83-.26,2.44-.78.61-.52.92-1.23.92-2.14,0-.96-.31-1.69-.94-2.2-.63-.51-1.43-.76-2.42-.76s-1.79.25-2.4.76c-.61.51-.92,1.24-.92,2.2,0,.91.31,1.62.92,2.14.61.52,1.41.78,2.4.78Z"/><path class="cls-2" d="m272.55,45.36l-3.03,1.66v-.7l3.03,1.63-1.35,2.24-2.8-1.68.35-.21.07,3.1h-2.66l.07-3.1.35.21-2.8,1.68-1.33-2.24,3.03-1.63v.7l-3.03-1.66,1.33-2.24,2.8,1.7-.35.21-.07-3.13h2.66l-.07,3.13-.35-.21,2.8-1.7,1.35,2.24Z"/><path class="cls-6" d="m84.89,66.43h14.65v6.12h-22.49v-28.01h21.97v6.12h-14.13v15.77Zm-.56-11.05h13.01v5.92h-13.01v-5.92Z"/><path class="cls-6" d="m112.14,72.55l-11.97-28.01h8.56l10.08,24.25h-5.04l10.32-24.25h7.84l-12.01,28.01h-7.8Z"/><path class="cls-6" d="m141.51,72.55h-7.92v-28.01h21.97v6.12h-14.05v21.89Zm-.56-15.73h12.93v6.12h-12.93v-6.12Z"/><path class="cls-6" d="m169.33,72.55v-4.96l10.48-9.8c.75-.69,1.3-1.31,1.66-1.84.36-.53.6-1.02.72-1.46.12-.44.18-.85.18-1.22,0-.91-.3-1.61-.9-2.12-.6-.51-1.5-.76-2.7-.76-1.01,0-1.96.23-2.84.68s-1.6,1.13-2.16,2.04l-5.88-3.28c1.04-1.76,2.55-3.17,4.52-4.24,1.97-1.07,4.33-1.6,7.08-1.6,2.16,0,4.05.35,5.68,1.04,1.63.69,2.9,1.68,3.82,2.96s1.38,2.79,1.38,4.52c0,.91-.12,1.81-.36,2.7-.24.89-.7,1.84-1.38,2.84-.68,1-1.69,2.11-3.02,3.34l-8.32,7.68-1.32-2.8h15.17v6.28h-21.81Z"/><path class="cls-6" d="m205.82,73.11c-2.4,0-4.53-.57-6.38-1.72-1.85-1.15-3.32-2.8-4.38-4.96-1.07-2.16-1.6-4.79-1.6-7.88s.53-5.72,1.6-7.88c1.07-2.16,2.53-3.81,4.38-4.96,1.85-1.15,3.98-1.72,6.38-1.72s4.49.57,6.34,1.72c1.85,1.15,3.31,2.8,4.38,4.96s1.6,4.79,1.6,7.88-.53,5.72-1.6,7.88-2.53,3.82-4.38,4.96c-1.85,1.15-3.97,1.72-6.34,1.72Zm0-6.48c.85,0,1.61-.27,2.26-.8.65-.53,1.17-1.39,1.54-2.58.37-1.19.56-2.75.56-4.7s-.19-3.55-.56-4.72c-.37-1.17-.89-2.03-1.54-2.56-.65-.53-1.41-.8-2.26-.8s-1.61.27-2.26.8c-.65.53-1.17,1.39-1.56,2.56-.39,1.17-.58,2.75-.58,4.72s.19,3.52.58,4.7c.39,1.19.91,2.05,1.56,2.58.65.53,1.41.8,2.26.8Z"/><path class="cls-6" d="m224.67,72.55v-25.17l3.4,3.28h-8.6v-6.12h13.13v28.01h-7.92Z"/><path class="cls-6" d="m248.8,73.11c-2.43,0-4.55-.36-6.36-1.08-1.81-.72-3.24-1.74-4.26-3.06-1.03-1.32-1.54-2.87-1.54-4.66s.51-3.26,1.54-4.5,2.46-2.19,4.28-2.84c1.83-.65,3.94-.98,6.34-.98s4.52.33,6.34.98c1.83.65,3.25,1.6,4.28,2.84,1.03,1.24,1.54,2.74,1.54,4.5s-.51,3.34-1.52,4.66c-1.01,1.32-2.43,2.34-4.26,3.06-1.83.72-3.96,1.08-6.38,1.08Zm0-13.21c-2.19,0-4.12-.31-5.78-.92-1.67-.61-2.98-1.5-3.94-2.66-.96-1.16-1.44-2.55-1.44-4.18s.47-3.12,1.42-4.32c.95-1.2,2.26-2.14,3.94-2.82,1.68-.68,3.62-1.02,5.8-1.02s4.16.34,5.82,1.02c1.67.68,2.97,1.62,3.92,2.82.95,1.2,1.42,2.64,1.42,4.32s-.47,3.02-1.42,4.18c-.95,1.16-2.26,2.05-3.94,2.66-1.68.61-3.62.92-5.8.92Zm0,7.64c1.28,0,2.3-.31,3.06-.92.76-.61,1.14-1.47,1.14-2.56s-.38-1.91-1.14-2.54c-.76-.63-1.78-.94-3.06-.94s-2.3.31-3.06.94c-.76.63-1.14,1.47-1.14,2.54s.38,1.95,1.14,2.56c.76.61,1.78.92,3.06.92Zm0-12.13c1.01,0,1.83-.26,2.44-.78.61-.52.92-1.23.92-2.14,0-.96-.31-1.69-.94-2.2-.63-.51-1.43-.76-2.42-.76s-1.79.25-2.4.76c-.61.51-.92,1.24-.92,2.2,0,.91.31,1.62.92,2.14.61.52,1.41.78,2.4.78Z"/><path class="cls-6" d="m272.55,45.36l-3.03,1.66v-.7l3.03,1.63-1.35,2.24-2.8-1.68.35-.21.07,3.1h-2.66l.07-3.1.35.21-2.8,1.68-1.33-2.24,3.03-1.63v.7l-3.03-1.66,1.33-2.24,2.8,1.7-.35.21-.07-3.13h2.66l-.07,3.13-.35-.21,2.8-1.7,1.35,2.24Z"/></svg>