<?xml version="1.0" encoding="UTF-8"?><svg id="Warstwa_2" xmlns="http://www.w3.org/2000/svg" viewBox="0 0 347.02 481.67"><defs><style>.cls-1{fill:#fff;}.cls-2,.cls-3{fill:red;}.cls-4{fill:#72b72f;}.cls-4,.cls-5,.cls-6,.cls-3{stroke:#fff;}.cls-4,.cls-3{stroke-width:3px;}.cls-5{stroke-width:5px;}.cls-5,.cls-6{fill:none;}.cls-6{stroke-width:8px;}.cls-6,.cls-3{stroke-miterlimit:10;}</style></defs><circle class="cls-3" cx="172.83" cy="308.61" r="169.13"/><circle class="cls-6" cx="172.83" cy="308.61" r="148.37"/><path class="cls-1" d="m180.65,244.55v17.08c-20.65,25.93-36.17,61.63-39.28,104.01h-28.88c2.64-36.33,21.42-74.05,39.59-96.25h-56.35v-24.84h84.92Z"/><path class="cls-1" d="m271.94,313.17v9.62h-38.34v38.5h-10.25v-38.5h-38.34v-9.62h38.34v-38.19h10.25v38.19h38.34Z"/><path class="cls-5" d="m63.64,66.43h14.65v6.12h-22.49v-28.01h21.97v6.12h-14.13v15.77Zm-.56-11.05h13.01v5.92h-13.01v-5.92Z"/><path class="cls-5" d="m92.53,73.11c-2.29,0-4.5-.29-6.62-.86-2.12-.57-3.85-1.31-5.18-2.22l2.6-5.84c1.25.8,2.7,1.46,4.34,1.98,1.64.52,3.27.78,4.9.78,1.09,0,1.97-.1,2.64-.3s1.15-.47,1.46-.8c.31-.33.46-.73.46-1.18,0-.64-.29-1.15-.88-1.52-.59-.37-1.35-.68-2.28-.92-.93-.24-1.97-.48-3.1-.72-1.13-.24-2.27-.55-3.4-.92-1.13-.37-2.17-.86-3.1-1.46-.93-.6-1.69-1.39-2.28-2.36-.59-.97-.88-2.21-.88-3.7,0-1.68.46-3.2,1.38-4.56.92-1.36,2.3-2.45,4.14-3.28,1.84-.83,4.14-1.24,6.88-1.24,1.84,0,3.65.21,5.42.62,1.77.41,3.35,1.02,4.74,1.82l-2.44,5.88c-1.33-.72-2.65-1.26-3.96-1.62s-2.58-.54-3.8-.54c-1.09,0-1.97.11-2.64.34-.67.23-1.15.53-1.44.9-.29.37-.44.8-.44,1.28,0,.61.29,1.1.86,1.46.57.36,1.33.65,2.28.88.95.23,1.99.46,3.12.7,1.13.24,2.27.54,3.4.9,1.13.36,2.17.84,3.1,1.44.93.6,1.69,1.39,2.26,2.36.57.97.86,2.19.86,3.66,0,1.63-.46,3.13-1.38,4.5-.92,1.37-2.29,2.48-4.12,3.3-1.83.83-4.13,1.24-6.9,1.24Z"/><path class="cls-5" d="m117.19,72.55l-11.97-28.01h8.56l10.08,24.25h-5.04l10.32-24.25h7.84l-12.01,28.01h-7.8Z"/><path class="cls-5" d="m148.48,73.11c-2.29,0-4.5-.29-6.62-.86-2.12-.57-3.85-1.31-5.18-2.22l2.6-5.84c1.25.8,2.7,1.46,4.34,1.98,1.64.52,3.28.78,4.9.78,1.09,0,1.97-.1,2.64-.3s1.15-.47,1.46-.8c.31-.33.46-.73.46-1.18,0-.64-.29-1.15-.88-1.52s-1.35-.68-2.28-.92c-.93-.24-1.97-.48-3.1-.72-1.13-.24-2.27-.55-3.4-.92-1.13-.37-2.17-.86-3.1-1.46-.93-.6-1.69-1.39-2.28-2.36-.59-.97-.88-2.21-.88-3.7,0-1.68.46-3.2,1.38-4.56.92-1.36,2.3-2.45,4.14-3.28,1.84-.83,4.14-1.24,6.88-1.24,1.84,0,3.65.21,5.42.62,1.77.41,3.36,1.02,4.74,1.82l-2.44,5.88c-1.33-.72-2.65-1.26-3.96-1.62-1.31-.36-2.58-.54-3.8-.54-1.09,0-1.97.11-2.64.34-.67.23-1.15.53-1.44.9-.29.37-.44.8-.44,1.28,0,.61.29,1.1.86,1.46.57.36,1.33.65,2.28.88.95.23,1.99.46,3.12.7s2.27.54,3.4.9c1.13.36,2.17.84,3.1,1.44.93.6,1.69,1.39,2.26,2.36.57.97.86,2.19.86,3.66,0,1.63-.46,3.13-1.38,4.5-.92,1.37-2.29,2.48-4.12,3.3-1.83.83-4.13,1.24-6.9,1.24Z"/><path class="cls-5" d="m174.57,72.55v-4.96l10.49-9.8c.75-.69,1.3-1.31,1.66-1.84.36-.53.6-1.02.72-1.46.12-.44.18-.85.18-1.22,0-.91-.3-1.61-.9-2.12-.6-.51-1.5-.76-2.7-.76-1.01,0-1.96.23-2.84.68-.88.45-1.6,1.13-2.16,2.04l-5.88-3.28c1.04-1.76,2.55-3.17,4.52-4.24,1.97-1.07,4.34-1.6,7.08-1.6,2.16,0,4.05.35,5.68,1.04,1.63.69,2.9,1.68,3.82,2.96.92,1.28,1.38,2.79,1.38,4.52,0,.91-.12,1.81-.36,2.7-.24.89-.7,1.84-1.38,2.84-.68,1-1.69,2.11-3.02,3.34l-8.32,7.68-1.32-2.8h15.17v6.28h-21.81Z"/><path class="cls-5" d="m211.07,73.11c-2.4,0-4.53-.57-6.38-1.72-1.85-1.15-3.31-2.8-4.38-4.96s-1.6-4.79-1.6-7.88.53-5.72,1.6-7.88,2.53-3.81,4.38-4.96c1.85-1.15,3.98-1.72,6.38-1.72s4.49.57,6.34,1.72c1.85,1.15,3.31,2.8,4.38,4.96s1.6,4.79,1.6,7.88-.53,5.72-1.6,7.88-2.53,3.82-4.38,4.96c-1.86,1.15-3.97,1.72-6.34,1.72Zm0-6.48c.85,0,1.61-.27,2.26-.8.65-.53,1.17-1.39,1.54-2.58.37-1.19.56-2.75.56-4.7s-.19-3.55-.56-4.72c-.38-1.17-.89-2.03-1.54-2.56-.65-.53-1.41-.8-2.26-.8s-1.61.27-2.26.8-1.17,1.39-1.56,2.56c-.39,1.17-.58,2.75-.58,4.72s.19,3.52.58,4.7c.39,1.19.91,2.05,1.56,2.58s1.41.8,2.26.8Z"/><path class="cls-5" d="m225.68,72.55v-4.96l10.49-9.8c.75-.69,1.3-1.31,1.66-1.84.36-.53.6-1.02.72-1.46.12-.44.18-.85.18-1.22,0-.91-.3-1.61-.9-2.12-.6-.51-1.5-.76-2.7-.76-1.01,0-1.96.23-2.84.68s-1.6,1.13-2.16,2.04l-5.88-3.28c1.04-1.76,2.55-3.17,4.52-4.24,1.97-1.07,4.33-1.6,7.08-1.6,2.16,0,4.05.35,5.68,1.04,1.63.69,2.9,1.68,3.82,2.96s1.38,2.79,1.38,4.52c0,.91-.12,1.81-.36,2.7-.24.89-.7,1.84-1.38,2.84s-1.69,2.11-3.02,3.34l-8.32,7.68-1.32-2.8h15.17v6.28h-21.81Z"/><path class="cls-5" d="m249.65,72.55v-4.96l10.48-9.8c.75-.69,1.3-1.31,1.66-1.84s.6-1.02.72-1.46c.12-.44.18-.85.18-1.22,0-.91-.3-1.61-.9-2.12s-1.5-.76-2.7-.76c-1.01,0-1.96.23-2.84.68s-1.6,1.13-2.16,2.04l-5.88-3.28c1.04-1.76,2.55-3.17,4.52-4.24,1.97-1.07,4.33-1.6,7.08-1.6,2.16,0,4.05.35,5.68,1.04,1.63.69,2.9,1.68,3.82,2.96s1.38,2.79,1.38,4.52c0,.91-.12,1.81-.36,2.7-.24.89-.7,1.84-1.38,2.84-.68,1-1.69,2.11-3.02,3.34l-8.32,7.68-1.32-2.8h15.17v6.28h-21.81Z"/><path class="cls-5" d="m282.75,45.36l-3.03,1.66v-.7l3.03,1.63-1.35,2.24-2.8-1.68.35-.21.07,3.1h-2.66l.07-3.1.35.21-2.8,1.68-1.33-2.24,3.03-1.63v.7l-3.03-1.66,1.33-2.24,2.8,1.7-.35.21-.07-3.13h2.66l-.07,3.13-.35-.21,2.8-1.7,1.35,2.24Z"/><path class="cls-5" d="m293.79,45.36l-3.03,1.66v-.7l3.03,1.63-1.35,2.24-2.8-1.68.35-.21.07,3.1h-2.66l.07-3.1.35.21-2.8,1.68-1.33-2.24,3.03-1.63v.7l-3.03-1.66,1.33-2.24,2.8,1.7-.35.21-.07-3.13h2.66l-.07,3.13-.35-.21,2.8-1.7,1.35,2.24Z"/><path class="cls-4" d="m63.64,66.43h14.65v6.12h-22.49v-28.01h21.97v6.12h-14.13v15.77Zm-.56-11.05h13.01v5.92h-13.01v-5.92Z"/><path class="cls-4" d="m92.53,73.11c-2.29,0-4.5-.29-6.62-.86-2.12-.57-3.85-1.31-5.18-2.22l2.6-5.84c1.25.8,2.7,1.46,4.34,1.98,1.64.52,3.27.78,4.9.78,1.09,0,1.97-.1,2.64-.3s1.15-.47,1.46-.8c.31-.33.46-.73.46-1.18,0-.64-.29-1.15-.88-1.52-.59-.37-1.35-.68-2.28-.92-.93-.24-1.97-.48-3.1-.72-1.13-.24-2.27-.55-3.4-.92-1.13-.37-2.17-.86-3.1-1.46-.93-.6-1.69-1.39-2.28-2.36-.59-.97-.88-2.21-.88-3.7,0-1.68.46-3.2,1.38-4.56.92-1.36,2.3-2.45,4.14-3.28,1.84-.83,4.14-1.24,6.88-1.24,1.84,0,3.65.21,5.42.62,1.77.41,3.35,1.02,4.74,1.82l-2.44,5.88c-1.33-.72-2.65-1.26-3.96-1.62s-2.58-.54-3.8-.54c-1.09,0-1.97.11-2.64.34-.67.23-1.15.53-1.44.9-.29.37-.44.8-.44,1.28,0,.61.29,1.1.86,1.46.57.36,1.33.65,2.28.88.95.23,1.99.46,3.12.7,1.13.24,2.27.54,3.4.9,1.13.36,2.17.84,3.1,1.44.93.6,1.69,1.39,2.26,2.36.57.97.86,2.19.86,3.66,0,1.63-.46,3.13-1.38,4.5-.92,1.37-2.29,2.48-4.12,3.3-1.83.83-4.13,1.24-6.9,1.24Z"/><path class="cls-4" d="m117.19,72.55l-11.97-28.01h8.56l10.08,24.25h-5.04l10.32-24.25h7.84l-12.01,28.01h-7.8Z"/><path class="cls-4" d="m148.48,73.11c-2.29,0-4.5-.29-6.62-.86-2.12-.57-3.85-1.31-5.18-2.22l2.6-5.84c1.25.8,2.7,1.46,4.34,1.98,1.64.52,3.28.78,4.9.78,1.09,0,1.97-.1,2.64-.3s1.15-.47,1.46-.8c.31-.33.46-.73.46-1.18,0-.64-.29-1.15-.88-1.52s-1.35-.68-2.28-.92c-.93-.24-1.97-.48-3.1-.72-1.13-.24-2.27-.55-3.4-.92-1.13-.37-2.17-.86-3.1-1.46-.93-.6-1.69-1.39-2.28-2.36-.59-.97-.88-2.21-.88-3.7,0-1.68.46-3.2,1.38-4.56.92-1.36,2.3-2.45,4.14-3.28,1.84-.83,4.14-1.24,6.88-1.24,1.84,0,3.65.21,5.42.62,1.77.41,3.36,1.02,4.74,1.82l-2.44,5.88c-1.33-.72-2.65-1.26-3.96-1.62-1.31-.36-2.58-.54-3.8-.54-1.09,0-1.97.11-2.64.34-.67.23-1.15.53-1.44.9-.29.37-.44.8-.44,1.28,0,.61.29,1.1.86,1.46.57.36,1.33.65,2.28.88.95.23,1.99.46,3.12.7s2.27.54,3.4.9c1.13.36,2.17.84,3.1,1.44.93.6,1.69,1.39,2.26,2.36.57.97.86,2.19.86,3.66,0,1.63-.46,3.13-1.38,4.5-.92,1.37-2.29,2.48-4.12,3.3-1.83.83-4.13,1.24-6.9,1.24Z"/><path class="cls-4" d="m174.57,72.55v-4.96l10.49-9.8c.75-.69,1.3-1.31,1.66-1.84.36-.53.6-1.02.72-1.46.12-.44.18-.85.18-1.22,0-.91-.3-1.61-.9-2.12-.6-.51-1.5-.76-2.7-.76-1.01,0-1.96.23-2.84.68-.88.45-1.6,1.13-2.16,2.04l-5.88-3.28c1.04-1.76,2.55-3.17,4.52-4.24,1.97-1.07,4.34-1.6,7.08-1.6,2.16,0,4.05.35,5.68,1.04,1.63.69,2.9,1.68,3.82,2.96.92,1.28,1.38,2.79,1.38,4.52,0,.91-.12,1.81-.36,2.7-.24.89-.7,1.84-1.38,2.84-.68,1-1.69,2.11-3.02,3.34l-8.32,7.68-1.32-2.8h15.17v6.28h-21.81Z"/><path class="cls-4" d="m211.07,73.11c-2.4,0-4.53-.57-6.38-1.72-1.85-1.15-3.31-2.8-4.38-4.96s-1.6-4.79-1.6-7.88.53-5.72,1.6-7.88,2.53-3.81,4.38-4.96c1.85-1.15,3.98-1.72,6.38-1.72s4.49.57,6.34,1.72c1.85,1.15,3.31,2.8,4.38,4.96s1.6,4.79,1.6,7.88-.53,5.72-1.6,7.88-2.53,3.82-4.38,4.96c-1.86,1.15-3.97,1.72-6.34,1.72Zm0-6.48c.85,0,1.61-.27,2.26-.8.65-.53,1.17-1.39,1.54-2.58.37-1.19.56-2.75.56-4.7s-.19-3.55-.56-4.72c-.38-1.17-.89-2.03-1.54-2.56-.65-.53-1.41-.8-2.26-.8s-1.61.27-2.26.8-1.17,1.39-1.56,2.56c-.39,1.17-.58,2.75-.58,4.72s.19,3.52.58,4.7c.39,1.19.91,2.05,1.56,2.58s1.41.8,2.26.8Z"/><path class="cls-4" d="m225.68,72.55v-4.96l10.49-9.8c.75-.69,1.3-1.31,1.66-1.84.36-.53.6-1.02.72-1.46.12-.44.18-.85.18-1.22,0-.91-.3-1.61-.9-2.12-.6-.51-1.5-.76-2.7-.76-1.01,0-1.96.23-2.84.68s-1.6,1.13-2.16,2.04l-5.88-3.28c1.04-1.76,2.55-3.17,4.52-4.24,1.97-1.07,4.33-1.6,7.08-1.6,2.16,0,4.05.35,5.68,1.04,1.63.69,2.9,1.68,3.82,2.96s1.38,2.79,1.38,4.52c0,.91-.12,1.81-.36,2.7-.24.89-.7,1.84-1.38,2.84s-1.69,2.11-3.02,3.34l-8.32,7.68-1.32-2.8h15.17v6.28h-21.81Z"/><path class="cls-4" d="m249.65,72.55v-4.96l10.48-9.8c.75-.69,1.3-1.31,1.66-1.84s.6-1.02.72-1.46c.12-.44.18-.85.18-1.22,0-.91-.3-1.61-.9-2.12s-1.5-.76-2.7-.76c-1.01,0-1.96.23-2.84.68s-1.6,1.13-2.16,2.04l-5.88-3.28c1.04-1.76,2.55-3.17,4.52-4.24,1.97-1.07,4.33-1.6,7.08-1.6,2.16,0,4.05.35,5.68,1.04,1.63.69,2.9,1.68,3.82,2.96s1.38,2.79,1.38,4.52c0,.91-.12,1.81-.36,2.7-.24.89-.7,1.84-1.38,2.84-.68,1-1.69,2.11-3.02,3.34l-8.32,7.68-1.32-2.8h15.17v6.28h-21.81Z"/><path class="cls-4" d="m282.75,45.36l-3.03,1.66v-.7l3.03,1.63-1.35,2.24-2.8-1.68.35-.21.07,3.1h-2.66l.07-3.1.35.21-2.8,1.68-1.33-2.24,3.03-1.63v.7l-3.03-1.66,1.33-2.24,2.8,1.7-.35.21-.07-3.13h2.66l-.07,3.13-.35-.21,2.8-1.7,1.35,2.24Z"/><path class="cls-4" d="m293.79,45.36l-3.03,1.66v-.7l3.03,1.63-1.35,2.24-2.8-1.68.35-.21.07,3.1h-2.66l.07-3.1.35.21-2.8,1.68-1.33-2.24,3.03-1.63v.7l-3.03-1.66,1.33-2.24,2.8,1.7-.35.21-.07-3.13h2.66l-.07,3.13-.35-.21,2.8-1.7,1.35,2.24Z"/><path class="cls-2" d="m63.64,66.43h14.65v6.12h-22.49v-28.01h21.97v6.12h-14.13v15.77Zm-.56-11.05h13.01v5.92h-13.01v-5.92Z"/><path class="cls-2" d="m92.53,73.11c-2.29,0-4.5-.29-6.62-.86-2.12-.57-3.85-1.31-5.18-2.22l2.6-5.84c1.25.8,2.7,1.46,4.34,1.98,1.64.52,3.27.78,4.9.78,1.09,0,1.97-.1,2.64-.3s1.15-.47,1.46-.8c.31-.33.46-.73.46-1.18,0-.64-.29-1.15-.88-1.52-.59-.37-1.35-.68-2.28-.92-.93-.24-1.97-.48-3.1-.72-1.13-.24-2.27-.55-3.4-.92-1.13-.37-2.17-.86-3.1-1.46-.93-.6-1.69-1.39-2.28-2.36-.59-.97-.88-2.21-.88-3.7,0-1.68.46-3.2,1.38-4.56.92-1.36,2.3-2.45,4.14-3.28,1.84-.83,4.14-1.24,6.88-1.24,1.84,0,3.65.21,5.42.62,1.77.41,3.35,1.02,4.74,1.82l-2.44,5.88c-1.33-.72-2.65-1.26-3.96-1.62s-2.58-.54-3.8-.54c-1.09,0-1.97.11-2.64.34-.67.23-1.15.53-1.44.9-.29.37-.44.8-.44,1.28,0,.61.29,1.1.86,1.46.57.36,1.33.65,2.28.88.95.23,1.99.46,3.12.7,1.13.24,2.27.54,3.4.9,1.13.36,2.17.84,3.1,1.44.93.6,1.69,1.39,2.26,2.36.57.97.86,2.19.86,3.66,0,1.63-.46,3.13-1.38,4.5-.92,1.37-2.29,2.48-4.12,3.3-1.83.83-4.13,1.24-6.9,1.24Z"/><path class="cls-2" d="m117.19,72.55l-11.97-28.01h8.56l10.08,24.25h-5.04l10.32-24.25h7.84l-12.01,28.01h-7.8Z"/><path class="cls-2" d="m148.48,73.11c-2.29,0-4.5-.29-6.62-.86-2.12-.57-3.85-1.31-5.18-2.22l2.6-5.84c1.25.8,2.7,1.46,4.34,1.98,1.64.52,3.28.78,4.9.78,1.09,0,1.97-.1,2.64-.3s1.15-.47,1.46-.8c.31-.33.46-.73.46-1.18,0-.64-.29-1.15-.88-1.52s-1.35-.68-2.28-.92c-.93-.24-1.97-.48-3.1-.72-1.13-.24-2.27-.55-3.4-.92-1.13-.37-2.17-.86-3.1-1.46-.93-.6-1.69-1.39-2.28-2.36-.59-.97-.88-2.21-.88-3.7,0-1.68.46-3.2,1.38-4.56.92-1.36,2.3-2.45,4.14-3.28,1.84-.83,4.14-1.24,6.88-1.24,1.84,0,3.65.21,5.42.62,1.77.41,3.36,1.02,4.74,1.82l-2.44,5.88c-1.33-.72-2.65-1.26-3.96-1.62-1.31-.36-2.58-.54-3.8-.54-1.09,0-1.97.11-2.64.34-.67.23-1.15.53-1.44.9-.29.37-.44.8-.44,1.28,0,.61.29,1.1.86,1.46.57.36,1.33.65,2.28.88.95.23,1.99.46,3.12.7s2.27.54,3.4.9c1.13.36,2.17.84,3.1,1.44.93.6,1.69,1.39,2.26,2.36.57.97.86,2.19.86,3.66,0,1.63-.46,3.13-1.38,4.5-.92,1.37-2.29,2.48-4.12,3.3-1.83.83-4.13,1.24-6.9,1.24Z"/><path class="cls-2" d="m174.57,72.55v-4.96l10.49-9.8c.75-.69,1.3-1.31,1.66-1.84.36-.53.6-1.02.72-1.46.12-.44.18-.85.18-1.22,0-.91-.3-1.61-.9-2.12-.6-.51-1.5-.76-2.7-.76-1.01,0-1.96.23-2.84.68-.88.45-1.6,1.13-2.16,2.04l-5.88-3.28c1.04-1.76,2.55-3.17,4.52-4.24,1.97-1.07,4.34-1.6,7.08-1.6,2.16,0,4.05.35,5.68,1.04,1.63.69,2.9,1.68,3.82,2.96.92,1.28,1.38,2.79,1.38,4.52,0,.91-.12,1.81-.36,2.7-.24.89-.7,1.84-1.38,2.84-.68,1-1.69,2.11-3.02,3.34l-8.32,7.68-1.32-2.8h15.17v6.28h-21.81Z"/><path class="cls-2" d="m211.07,73.11c-2.4,0-4.53-.57-6.38-1.72-1.85-1.15-3.31-2.8-4.38-4.96s-1.6-4.79-1.6-7.88.53-5.72,1.6-7.88,2.53-3.81,4.38-4.96c1.85-1.15,3.98-1.72,6.38-1.72s4.49.57,6.34,1.72c1.85,1.15,3.31,2.8,4.38,4.96s1.6,4.79,1.6,7.88-.53,5.72-1.6,7.88-2.53,3.82-4.38,4.96c-1.86,1.15-3.97,1.72-6.34,1.72Zm0-6.48c.85,0,1.61-.27,2.26-.8.65-.53,1.17-1.39,1.54-2.58.37-1.19.56-2.75.56-4.7s-.19-3.55-.56-4.72c-.38-1.17-.89-2.03-1.54-2.56-.65-.53-1.41-.8-2.26-.8s-1.61.27-2.26.8-1.17,1.39-1.56,2.56c-.39,1.17-.58,2.75-.58,4.72s.19,3.52.58,4.7c.39,1.19.91,2.05,1.56,2.58s1.41.8,2.26.8Z"/><path class="cls-2" d="m225.68,72.55v-4.96l10.49-9.8c.75-.69,1.3-1.31,1.66-1.84.36-.53.6-1.02.72-1.46.12-.44.18-.85.18-1.22,0-.91-.3-1.61-.9-2.12-.6-.51-1.5-.76-2.7-.76-1.01,0-1.96.23-2.84.68s-1.6,1.13-2.16,2.04l-5.88-3.28c1.04-1.76,2.55-3.17,4.52-4.24,1.97-1.07,4.33-1.6,7.08-1.6,2.16,0,4.05.35,5.68,1.04,1.63.69,2.9,1.68,3.82,2.96s1.38,2.79,1.38,4.52c0,.91-.12,1.81-.36,2.7-.24.89-.7,1.84-1.38,2.84s-1.69,2.11-3.02,3.34l-8.32,7.68-1.32-2.8h15.17v6.28h-21.81Z"/><path class="cls-2" d="m249.65,72.55v-4.96l10.48-9.8c.75-.69,1.3-1.31,1.66-1.84s.6-1.02.72-1.46c.12-.44.18-.85.18-1.22,0-.91-.3-1.61-.9-2.12s-1.5-.76-2.7-.76c-1.01,0-1.96.23-2.84.68s-1.6,1.13-2.16,2.04l-5.88-3.28c1.04-1.76,2.55-3.17,4.52-4.24,1.97-1.07,4.33-1.6,7.08-1.6,2.16,0,4.05.35,5.68,1.04,1.63.69,2.9,1.68,3.82,2.96s1.38,2.79,1.38,4.52c0,.91-.12,1.81-.36,2.7-.24.89-.7,1.84-1.38,2.84-.68,1-1.69,2.11-3.02,3.34l-8.32,7.68-1.32-2.8h15.17v6.28h-21.81Z"/><path class="cls-2" d="m282.75,45.36l-3.03,1.66v-.7l3.03,1.63-1.35,2.24-2.8-1.68.35-.21.07,3.1h-2.66l.07-3.1.35.21-2.8,1.68-1.33-2.24,3.03-1.63v.7l-3.03-1.66,1.33-2.24,2.8,1.7-.35.21-.07-3.13h2.66l-.07,3.13-.35-.21,2.8-1.7,1.35,2.24Z"/><path class="cls-2" d="m293.79,45.36l-3.03,1.66v-.7l3.03,1.63-1.35,2.24-2.8-1.68.35-.21.07,3.1h-2.66l.07-3.1.35.21-2.8,1.68-1.33-2.24,3.03-1.63v.7l-3.03-1.66,1.33-2.24,2.8,1.7-.35.21-.07-3.13h2.66l-.07,3.13-.35-.21,2.8-1.7,1.35,2.24Z"/></svg>