<?xml version="1.0" encoding="UTF-8"?><svg id="Warstwa_2" xmlns="http://www.w3.org/2000/svg" viewBox="0 0 133 133"><defs><style>.cls-1{fill:#f9b767;}.cls-2{fill:#ff7900;fill-rule:evenodd;}</style></defs><path class="cls-1" d="m61.18,0h83.4v132.62H61.18C27.41,132.62,0,105.21,0,71.44v-10.27C0,27.41,27.41,0,61.18,0Z"/><polygon class="cls-2" points="117.38 19.89 101.49 19.89 101.49 33.66 117.38 46.9 117.38 19.89"/><path class="cls-2" d="m84.47,22.09c-2.09-1.81-5.18-1.82-7.29-.04l-44,37.15,4.04,2.31c2.03,1.16,4.56.94,6.36-.55l33.15-27.4c2.08-1.72,5.08-1.72,7.16,0l33.15,27.4c1.8,1.49,4.34,1.71,6.36.55l4.04-2.31-42.97-37.11Z"/><polygon class="cls-2" points="43.24 63.72 43.24 106.61 80.31 106.61 80.31 80.13 101.49 80.13 101.49 106.61 117.38 106.61 117.38 63.72 80.31 35.12 43.24 63.72"/></svg>